<svg width="23" height="15" viewBox="0 0 23 15" fill="none" xmlns="http://www.w3.org/2000/svg">
<g clip-path="url(#clip0_140_12)">
<path d="M0 0H23V15H0V0Z" fill="#009B3A"/>
<path d="M11.5001 0.846489L20.6866 7.48684L11.5001 14.1228L2.26868 7.48684L11.5001 0.846489Z" fill="#FEDF00"/>
<path d="M11.4999 11.0263C13.4908 11.0263 15.1046 9.44753 15.1046 7.5C15.1046 5.55247 13.4908 3.97369 11.4999 3.97369C9.50913 3.97369 7.89526 5.55247 7.89526 7.5C7.89526 9.44753 9.50913 11.0263 11.4999 11.0263Z" fill="white"/>
<path d="M9.67969 7.26754C9.05649 7.26754 8.45123 7.35965 7.88184 7.5307C7.90874 9.45614 9.50932 11.0088 11.482 11.0088C12.7015 11.0088 13.782 10.4123 14.4321 9.50438C13.3158 8.14473 11.5986 7.26754 9.67969 7.26754ZM15.015 8.15789C15.0553 7.93859 15.0822 7.71491 15.0822 7.48245C15.0822 5.53509 13.4682 3.95614 11.4775 3.95614C9.99353 3.95614 8.72024 4.83772 8.16429 6.08772C8.65299 5.99123 9.15513 5.93859 9.67072 5.93859C11.769 5.94298 13.661 6.79386 15.015 8.15789Z" fill="#002776"/>
</g>
<defs>
<clipPath id="clip0_140_12">
<rect width="23" height="15" fill="white"/>
</clipPath>
</defs>
</svg>
