<svg width="23" height="16" viewBox="0 0 23 16" fill="none" xmlns="http://www.w3.org/2000/svg">
<g clip-path="url(#clip0_140_5)">
<path d="M0 0H23V16H0V0Z" fill="white"/>
<path d="M0 0H23V1.23041H0V0ZM0 2.46082H23V3.69123H0V2.46082ZM0 4.92164H23V6.15205H0V4.92164ZM0 7.38246H23V8.61287H0V7.38246ZM0 9.84795H23V11.0784H0V9.84795ZM0 12.3088H23V13.5392H0V12.3088ZM0 14.7696H23V16H0V14.7696Z" fill="#D80027"/>
<path d="M0 0H11.5V8.61287H0V0Z" fill="#2E52B2"/>
<path d="M2.1431 6.49825L1.96377 5.89942L1.7665 6.49825H1.17468L1.65441 6.85848L1.47507 7.45731L1.96377 7.08772L2.43901 7.45731L2.25519 6.85848L2.74388 6.49825H2.1431ZM4.66727 6.49825L4.48345 5.89942L4.29515 6.49825H3.70334L4.18306 6.85848L4.00373 7.45731L4.48345 7.08772L4.96767 7.45731L4.78833 6.85848L5.26805 6.49825H4.66727ZM7.20041 6.49825L7.00763 5.89942L6.82829 6.49825H6.22303L6.7162 6.85848L6.5279 7.45731L7.00763 7.08772L7.5008 7.45731L7.3125 6.85848L7.79223 6.49825H7.20041ZM9.7201 6.49825L9.54076 5.89942L9.35246 6.49825H8.75616L9.24038 6.85848L9.06104 7.45731L9.54076 7.08772L10.025 7.45731L9.83219 6.85848L10.3254 6.49825H9.7201ZM4.48345 3.52281L4.29515 4.12164H3.70334L4.18306 4.49123L4.00373 5.0807L4.48345 4.71579L4.96767 5.0807L4.78833 4.49123L5.26805 4.12164H4.66727L4.48345 3.52281ZM1.96377 3.52281L1.7665 4.12164H1.17468L1.65441 4.49123L1.47507 5.0807L1.96377 4.71579L2.43901 5.0807L2.25519 4.49123L2.74388 4.12164H2.1431L1.96377 3.52281ZM7.00763 3.52281L6.82829 4.12164H6.22303L6.7162 4.49123L6.5279 5.0807L7.00763 4.71579L7.5008 5.0807L7.3125 4.49123L7.79223 4.12164H7.20041L7.00763 3.52281ZM9.54076 3.52281L9.35246 4.12164H8.75616L9.24038 4.49123L9.06104 5.0807L9.54076 4.71579L10.025 5.0807L9.83219 4.49123L10.3254 4.12164H9.7201L9.54076 3.52281ZM1.96377 1.15556L1.7665 1.74503H1.17468L1.65441 2.11462L1.47507 2.70877L1.96377 2.33918L2.43901 2.70877L2.25519 2.11462L2.74388 1.74503H2.1431L1.96377 1.15556ZM4.48345 1.15556L4.29515 1.74503H3.70334L4.18306 2.11462L4.00373 2.70877L4.48345 2.33918L4.96767 2.70877L4.78833 2.11462L5.26805 1.74503H4.66727L4.48345 1.15556ZM7.00763 1.15556L6.82829 1.74503H6.22303L6.7162 2.11462L6.5279 2.70877L7.00763 2.33918L7.5008 2.70877L7.3125 2.11462L7.79223 1.74503H7.20041L7.00763 1.15556ZM9.54076 1.15556L9.35246 1.74503H8.75616L9.24038 2.11462L9.06104 2.70877L9.54076 2.33918L10.025 2.70877L9.83219 2.11462L10.3254 1.74503H9.7201L9.54076 1.15556Z" fill="white"/>
</g>
<defs>
<clipPath id="clip0_140_5">
<rect width="23" height="16" fill="white"/>
</clipPath>
</defs>
</svg>
