<svg width="20" height="13" viewBox="0 0 20 13" fill="none" xmlns="http://www.w3.org/2000/svg">
<g clip-path="url(#clip0_328_26)">
<path d="M0 0H20V13H0V0Z" fill="white"/>
<path d="M10 0.733626L17.9883 6.4886L10 12.2398L1.97272 6.4886L10 0.733626Z" fill="#3F72AF"/>
<path d="M9.99998 9.55614C11.7311 9.55614 13.1345 8.18786 13.1345 6.5C13.1345 4.81214 11.7311 3.44386 9.99998 3.44386C8.26884 3.44386 6.86548 4.81214 6.86548 6.5C6.86548 8.18786 8.26884 9.55614 9.99998 9.55614Z" fill="#3F72AF"/>
<path d="M8.41717 6.29854C7.87526 6.29854 7.34895 6.37836 6.85382 6.52661C6.87721 8.19532 8.26903 9.54094 9.98443 9.54094C11.0449 9.54094 11.9844 9.02398 12.5497 8.23713C11.579 7.05877 10.0858 6.29854 8.41717 6.29854ZM13.0565 7.07018C13.0916 6.88012 13.115 6.68626 13.115 6.4848C13.115 4.79708 11.7115 3.42865 9.98053 3.42865C8.69008 3.42865 7.58287 4.19269 7.09943 5.27602C7.52439 5.1924 7.96103 5.14678 8.40938 5.14678C10.2339 5.15058 11.8792 5.88801 13.0565 7.07018Z" fill="white"/>
</g>
<defs>
<clipPath id="clip0_328_26">
<rect width="20" height="13" fill="white"/>
</clipPath>
</defs>
</svg>
