<svg width="1826" height="1826" viewBox="0 0 1826 1826" fill="none" xmlns="http://www.w3.org/2000/svg">
<g clip-path="url(#clip0_324_38)">
<path d="M647.262 156.545H191.711C118.329 156.545 58.8418 216.032 58.8418 289.414V744.965C58.8418 818.346 118.329 877.834 191.711 877.834H647.262C720.643 877.834 780.131 818.346 780.131 744.965V289.414C780.131 216.032 720.643 156.545 647.262 156.545Z" fill="#3F72AF"/>
<path d="M1634.29 946.167H1178.74C1105.36 946.167 1045.87 1005.65 1045.87 1079.04V1534.59C1045.87 1607.97 1105.36 1667.46 1178.74 1667.46H1634.29C1707.67 1667.46 1767.16 1607.97 1767.16 1534.59V1079.04C1767.16 1005.65 1707.67 946.167 1634.29 946.167Z" fill="#3F72AF"/>
<path fill-rule="evenodd" clip-rule="evenodd" d="M988.925 156.545H1444.48C1517.86 156.545 1577.35 216.032 1577.35 289.414V744.965C1577.35 818.346 1517.86 877.834 1444.48 877.834H988.925C915.544 877.834 856.056 818.346 856.056 744.965V289.414C856.056 216.032 915.544 156.545 988.925 156.545ZM957.572 311.12V518.189H1097.5V482.094H1001.35V432.652H1089.92V396.557H1001.35V347.215H1097.1V311.12H957.572Z" fill="#3F72AF"/>
<path d="M1634.29 946.167H1178.74C1105.36 946.167 1045.87 1005.65 1045.87 1079.04V1534.59C1045.87 1607.97 1105.36 1667.46 1178.74 1667.46H1634.29C1707.67 1667.46 1767.16 1607.97 1767.16 1534.59V1079.04C1767.16 1005.65 1707.67 946.167 1634.29 946.167Z" fill="#3F72AF"/>
<path fill-rule="evenodd" clip-rule="evenodd" d="M988.925 156.545H1444.48C1517.86 156.545 1577.35 216.032 1577.35 289.414V744.965C1577.35 818.346 1517.86 877.834 1444.48 877.834H988.925C915.544 877.834 856.056 818.346 856.056 744.965V289.414C856.056 216.032 915.544 156.545 988.925 156.545ZM957.572 311.12V518.189H1097.5V482.094H1001.35V432.652H1089.92V396.557H1001.35V347.215H1097.1V311.12H957.572Z" fill="#3F72AF"/>
<path fill-rule="evenodd" clip-rule="evenodd" d="M798.869 -619H1254.42C1327.8 -619 1387.29 -559.513 1387.29 -486.131V-30.5801C1387.29 42.8015 1327.8 102.289 1254.42 102.289H798.869C725.487 102.289 666 42.8015 666 -30.5801V-486.131C666 -559.513 725.487 -619 798.869 -619ZM767.516 -464.424V-257.356H907.448V-293.45H811.294V-342.893H899.865V-378.988H811.294V-428.329H907.043V-464.424H767.516Z" fill="#3F72AF"/>
<path fill-rule="evenodd" clip-rule="evenodd" d="M381.524 946.167H837.075C910.456 946.167 969.944 1005.65 969.944 1079.04V1534.59C969.944 1607.97 910.456 1667.46 837.075 1667.46H381.524C308.142 1667.46 248.655 1607.97 248.655 1534.59V1079.04C248.655 1005.65 308.142 946.167 381.524 946.167ZM452.087 1141.29C458.219 1145.8 461.691 1152.14 462.5 1160.29H504.46C504.259 1147.96 500.954 1137.11 494.552 1127.74C488.147 1118.37 479.182 1111.05 467.657 1105.8C456.198 1100.54 442.784 1097.91 427.417 1097.91C412.317 1097.91 398.837 1100.54 386.973 1105.8C375.11 1111.05 365.773 1118.37 358.966 1127.74C352.226 1137.11 348.889 1148.06 348.956 1160.6C348.889 1175.9 353.91 1188.07 364.021 1197.1C374.132 1206.13 387.917 1212.77 405.374 1217.02L427.922 1222.68C435.47 1224.5 441.841 1226.52 447.03 1228.74C452.288 1230.97 456.264 1233.66 458.962 1236.83C461.725 1240 463.107 1243.91 463.107 1248.56C463.107 1253.55 461.591 1257.96 458.557 1261.81C455.524 1265.65 451.244 1268.65 445.717 1270.81C440.256 1272.96 433.819 1274.04 426.405 1274.04C418.856 1274.04 412.082 1272.89 406.082 1270.6C400.15 1268.24 395.399 1264.77 391.827 1260.19C388.321 1255.54 386.332 1249.74 385.861 1242.8H343.497C343.833 1257.69 347.439 1270.2 354.314 1280.31C361.257 1290.35 370.896 1297.94 383.232 1303.06C395.634 1308.18 410.193 1310.74 426.91 1310.74C443.761 1310.74 458.153 1308.22 470.083 1303.16C482.081 1298.04 491.249 1290.86 497.585 1281.62C503.987 1272.32 507.223 1261.34 507.292 1248.66C507.223 1240.03 505.639 1232.39 502.539 1225.71C499.506 1219.04 495.225 1213.24 489.698 1208.32C484.171 1203.4 477.634 1199.26 470.083 1195.88C462.534 1192.51 454.243 1189.82 445.212 1187.8L426.606 1183.35C422.091 1182.34 417.844 1181.12 413.868 1179.71C409.891 1178.22 406.385 1176.51 403.352 1174.55C400.319 1172.53 397.925 1170.14 396.173 1167.37C394.488 1164.61 393.713 1161.37 393.848 1157.67C393.848 1153.22 395.129 1149.24 397.69 1145.74C400.319 1142.23 404.094 1139.5 409.014 1137.54C413.934 1135.52 419.968 1134.51 427.113 1134.51C437.629 1134.51 445.952 1136.77 452.087 1141.29Z" fill="#3F72AF"/>
<path d="M1634.29 946.167H1178.74C1105.36 946.167 1045.87 1005.65 1045.87 1079.04V1534.59C1045.87 1607.97 1105.36 1667.46 1178.74 1667.46H1634.29C1707.67 1667.46 1767.16 1607.97 1767.16 1534.59V1079.04C1767.16 1005.65 1707.67 946.167 1634.29 946.167Z" fill="#3F72AF"/>
<path fill-rule="evenodd" clip-rule="evenodd" d="M381.524 946.167H837.075C910.456 946.167 969.944 1005.65 969.944 1079.04V1534.59C969.944 1607.97 910.456 1667.46 837.075 1667.46H381.524C308.142 1667.46 248.655 1607.97 248.655 1534.59V1079.04C248.655 1005.65 308.142 946.167 381.524 946.167ZM452.087 1141.29C458.219 1145.8 461.691 1152.14 462.5 1160.29H504.46C504.259 1147.96 500.954 1137.11 494.552 1127.74C488.147 1118.37 479.182 1111.05 467.657 1105.8C456.198 1100.54 442.784 1097.91 427.417 1097.91C412.317 1097.91 398.837 1100.54 386.973 1105.8C375.11 1111.05 365.773 1118.37 358.966 1127.74C352.226 1137.11 348.889 1148.06 348.956 1160.6C348.889 1175.9 353.91 1188.07 364.021 1197.1C374.132 1206.13 387.917 1212.77 405.374 1217.02L427.922 1222.68C435.47 1224.5 441.841 1226.52 447.03 1228.74C452.288 1230.97 456.264 1233.66 458.962 1236.83C461.725 1240 463.107 1243.91 463.107 1248.56C463.107 1253.55 461.591 1257.96 458.557 1261.81C455.524 1265.65 451.244 1268.65 445.717 1270.81C440.256 1272.96 433.819 1274.04 426.405 1274.04C418.856 1274.04 412.082 1272.89 406.082 1270.6C400.15 1268.24 395.399 1264.77 391.827 1260.19C388.321 1255.54 386.332 1249.74 385.861 1242.8H343.497C343.833 1257.69 347.439 1270.2 354.314 1280.31C361.257 1290.35 370.896 1297.94 383.232 1303.06C395.634 1308.18 410.193 1310.74 426.91 1310.74C443.761 1310.74 458.153 1308.22 470.083 1303.16C482.081 1298.04 491.249 1290.86 497.585 1281.62C503.987 1272.32 507.223 1261.34 507.292 1248.66C507.223 1240.03 505.639 1232.39 502.539 1225.71C499.506 1219.04 495.225 1213.24 489.698 1208.32C484.171 1203.4 477.634 1199.26 470.083 1195.88C462.534 1192.51 454.243 1189.82 445.212 1187.8L426.606 1183.35C422.091 1182.34 417.844 1181.12 413.868 1179.71C409.891 1178.22 406.385 1176.51 403.352 1174.55C400.319 1172.53 397.925 1170.14 396.173 1167.37C394.488 1164.61 393.713 1161.37 393.848 1157.67C393.848 1153.22 395.129 1149.24 397.69 1145.74C400.319 1142.23 404.094 1139.5 409.014 1137.54C413.934 1135.52 419.968 1134.51 427.113 1134.51C437.629 1134.51 445.952 1136.77 452.087 1141.29Z" fill="#3F72AF"/>
<path d="M-0.000244141 1581.09C-0.000244141 1628.79 38.6666 1667.46 86.3646 1667.46C134.063 1667.46 172.729 1628.79 172.729 1581.09L172.729 1032.53C172.729 984.833 134.063 946.166 86.3646 946.166C38.6666 946.166 -0.000244141 984.833 -0.000244141 1032.53L-0.000244141 1581.09Z" fill="#3F72AF"/>
<path d="M3.05176e-05 1667.46H87.314L87.314 946.166H3.05176e-05L3.05176e-05 1667.46Z" fill="#3F72AF"/>
<path d="M1826 242.91C1826 195.212 1787.33 156.545 1739.64 156.545C1691.94 156.545 1653.27 195.212 1653.27 242.91V791.469C1653.27 839.167 1691.94 877.834 1739.64 877.834C1787.33 877.834 1826 839.167 1826 791.469V242.91Z" fill="#3F72AF"/>
<path d="M1826 156.545H1738.69V877.834H1826V156.545Z" fill="#3F72AF"/>
<path d="M1033.23 1721.62H577.682C504.3 1721.62 444.813 1781.11 444.813 1854.49V2310.04C444.813 2383.42 504.3 2442.91 577.682 2442.91H1033.23C1106.61 2442.91 1166.1 2383.42 1166.1 2310.04V1854.49C1166.1 1781.11 1106.61 1721.62 1033.23 1721.62Z" fill="#3F72AF"/>
</g>
<defs>
<clipPath id="clip0_324_38">
<rect width="1826" height="1826" rx="913" fill="white"/>
</clipPath>
</defs>
</svg>
