<svg width="20" height="13" viewBox="0 0 20 13" fill="none" xmlns="http://www.w3.org/2000/svg">
<g clip-path="url(#clip0_328_31)">
<path d="M0 0H20V13H0V0Z" fill="#3F72AF"/>
<path d="M0 0H20V0.999708H0V0ZM0 1.99942H20V2.99912H0V1.99942ZM0 3.99883H20V4.99854H0V3.99883ZM0 5.99825H20V6.99795H0V5.99825ZM0 8.00146H20V9.00117H0V8.00146ZM0 10.0009H20V11.0006H0V10.0009ZM0 12.0003H20V13H0V12.0003Z" fill="white"/>
<path d="M0 0H10V6.99795H0V0Z" fill="#3F72AF"/>
<path d="M1.86353 5.27982L1.70758 4.79327L1.53604 5.27982H1.02142L1.43858 5.57252L1.28263 6.05906L1.70758 5.75877L2.12084 6.05906L1.96099 5.57252L2.38595 5.27982H1.86353ZM4.05846 5.27982L3.89862 4.79327L3.73487 5.27982H3.22025L3.63741 5.57252L3.48146 6.05906L3.89862 5.75877L4.31967 6.05906L4.16372 5.57252L4.58088 5.27982H4.05846ZM6.26119 5.27982L6.09355 4.79327L5.9376 5.27982H5.41129L5.84014 5.57252L5.67639 6.05906L6.09355 5.75877L6.5224 6.05906L6.35866 5.57252L6.77581 5.27982H6.26119ZM8.45222 5.27982L8.29628 4.79327L8.13253 5.27982H7.61402L8.03507 5.57252L7.87912 6.05906L8.29628 5.75877L8.71733 6.05906L8.54969 5.57252L8.97854 5.27982H8.45222ZM3.89862 2.86228L3.73487 3.34883H3.22025L3.63741 3.64912L3.48146 4.12807L3.89862 3.83158L4.31967 4.12807L4.16372 3.64912L4.58088 3.34883H4.05846L3.89862 2.86228ZM1.70758 2.86228L1.53604 3.34883H1.02142L1.43858 3.64912L1.28263 4.12807L1.70758 3.83158L2.12084 4.12807L1.96099 3.64912L2.38595 3.34883H1.86353L1.70758 2.86228ZM6.09355 2.86228L5.9376 3.34883H5.41129L5.84014 3.64912L5.67639 4.12807L6.09355 3.83158L6.5224 4.12807L6.35866 3.64912L6.77581 3.34883H6.26119L6.09355 2.86228ZM8.29628 2.86228L8.13253 3.34883H7.61402L8.03507 3.64912L7.87912 4.12807L8.29628 3.83158L8.71733 4.12807L8.54969 3.64912L8.97854 3.34883H8.45222L8.29628 2.86228ZM1.70758 0.938889L1.53604 1.41784H1.02142L1.43858 1.71813L1.28263 2.20088L1.70758 1.90058L2.12084 2.20088L1.96099 1.71813L2.38595 1.41784H1.86353L1.70758 0.938889ZM3.89862 0.938889L3.73487 1.41784H3.22025L3.63741 1.71813L3.48146 2.20088L3.89862 1.90058L4.31967 2.20088L4.16372 1.71813L4.58088 1.41784H4.05846L3.89862 0.938889ZM6.09355 0.938889L5.9376 1.41784H5.41129L5.84014 1.71813L5.67639 2.20088L6.09355 1.90058L6.5224 2.20088L6.35866 1.71813L6.77581 1.41784H6.26119L6.09355 0.938889ZM8.29628 0.938889L8.13253 1.41784H7.61402L8.03507 1.71813L7.87912 2.20088L8.29628 1.90058L8.71733 2.20088L8.54969 1.71813L8.97854 1.41784H8.45222L8.29628 0.938889Z" fill="white"/>
</g>
<defs>
<clipPath id="clip0_328_31">
<rect width="20" height="13" fill="white"/>
</clipPath>
</defs>
</svg>
